HIERARCHY
ROOT Hips
{
  OFFSET 0 0 0
  CHANNELS 6 Xposition Yposition Zposition Zrotation Yrotation Xrotation
  JOINT LeftThigh
  {
    OFFSET 8.409438 0 -5.917753
    CHANNELS 3 Zrotation Yrotation Xrotation
    JOINT LeftLeg
    {
      OFFSET 0 0 -42.358652
      CHANNELS 3 Zrotation Yrotation Xrotation
      JOINT LeftFoot
      {
        OFFSET 0 0 -39.357303
        CHANNELS 3 Zrotation Yrotation Xrotation
      }
    }
  }
  JOINT RightThigh
  {
    OFFSET -8.409438 0 -5.917753
    CHANNELS 3 Zrotation Yrotation Xrotation
    JOINT RightLeg
    {
      OFFSET 0 0 -42.358652
      CHANNELS 3 Zrotation Yrotation Xrotation
      JOINT RightFoot
      {
        OFFSET 0 0 -39.357303
        CHANNELS 3 Zrotation Yrotation Xrotation
      }
    }
  }
  JOINT SpineLow
  {
    OFFSET 0 0 4.719101
    CHANNELS 3 Zrotation Yrotation Xrotation
    JOINT SpineMid
    {
      OFFSET 0 0 12.899191
      CHANNELS 3 Zrotation Yrotation Xrotation
      JOINT Chest
      {
        OFFSET 0 0 12.899191
        CHANNELS 3 Zrotation Yrotation Xrotation
        JOINT LeftShoulder
        {
          OFFSET 7.550562 1.41573 9.438202
          CHANNELS 3 Zrotation Yrotation Xrotation
          JOINT LeftArm
          {
            OFFSET 9.155056 0 4.247191
            CHANNELS 3 Zrotation Yrotation Xrotation
            JOINT LeftForearm
            {
              OFFSET 0 0 25.771955
              CHANNELS 3 Zrotation Yrotation Xrotation
              JOINT LeftHand
              {
                OFFSET 0 0 25.197169
                CHANNELS 3 Zrotation Yrotation Xrotation
              }
            }
          }
        }
        JOINT RightShoulder
        {
          OFFSET -7.550562 1.41573 9.438202
          CHANNELS 3 Zrotation Yrotation Xrotation
          JOINT RightArm
          {
            OFFSET -9.155056 0 4.247191
            CHANNELS 3 Zrotation Yrotation Xrotation
            JOINT RightForearm
            {
              OFFSET 0 0 -25.771955
              CHANNELS 3 Zrotation Yrotation Xrotation
              JOINT RightHand
              {
                OFFSET 0 0 -25.197169
                CHANNELS 3 Zrotation Yrotation Xrotation
              }
            }
          }
        }
        JOINT Neck
        {
          OFFSET 0 0 15.101124
          CHANNELS 3 Zrotation Yrotation Xrotation
          JOINT Head
          {
            OFFSET 0 0 11.325843
            CHANNELS 3 Zrotation Yrotation Xrotation
            End Site
            {
              OFFSET 0 0 14.157303
            }
          }
        }
      }
    }
  }
}
MOTION
Frames: 10
Frame Time: 0.0
0.0  101.685394  0.0  -1.602217  -29.065158  -100.899014  27.101038  -32.917678  -25.363003  2.00167  27.111703  54.449065  -0.187336  4.515702  1.326883  -8.637436  8.931976  19.149911  -13.303125  19.736803  7.425766  8.1693  4.059943  -7.02245  -1.605751  0.579172  2.38875  -4.32797  1.739013  6.489015  -4.32797  1.739013  6.489015  -5.18633  21.150561  6.454052  -131.548326  75.163387  -91.661986  -41.019267  -20.097868  85.220024  67.883952  -13.218334  -12.005412  24.228476  -7.192089  27.418266  88.173072  31.076196  32.86129  -27.055687  8.559237  -106.154546  75.848303  11.138536  47.299624  10.9368  -3.713061  -6.19896  8.163034  -2.897148  -4.582802  
0.0  101.685394  0.0  -1.321521  -28.722573  -101.265968  26.653696  -32.601967  -25.029929  1.37693  27.103123  54.019332  0.111387  4.511158  1.587426  -7.584835  8.576759  19.340805  -13.538725  19.853357  7.792146  7.804559  4.046116  -6.607702  -1.62959  0.638539  2.478272  -4.384656  1.909227  6.729259  -4.384656  1.909227  6.729259  -5.760125  21.236283  6.431195  -131.510313  75.170138  -91.728326  -41.3199  -20.023417  85.349511  67.962301  -13.063814  -11.891231  23.913656  -7.232239  27.279295  88.405278  31.614626  32.984335  -27.300108  8.429095  -105.950316  76.392747  10.641137  47.245673  10.881001  -3.72407  -6.239704  8.12083  -2.905561  -4.613477  
0.0  101.685394  0.0  -1.143363  -28.321306  -101.515975  26.347815  -32.231715  -24.805412  0.691366  26.973835  53.601667  0.38231  4.490353  1.829595  -6.521444  7.987627  19.536433  -13.879635  19.687808  8.460296  7.111193  4.545751  -6.476767  -1.678651  0.653994  2.512057  -4.516045  1.958645  6.819083  -4.516045  1.958645  6.819083  -5.905418  21.482527  6.749156  -132.254  74.977325  -92.362086  -41.520053  -20.045859  85.6413  67.989958  -12.926238  -11.750794  23.495467  -7.17633  27.379941  88.852502  32.058052  33.137636  -27.354167  8.159524  -105.807412  77.043017  10.416869  47.33684  10.867383  -3.635902  -6.092475  8.112485  -2.836628  -4.504781  
0.0  101.685394  0.0  -1.063845  -27.839051  -101.664631  26.100094  -31.851699  -24.651326  -0.099941  26.809983  53.075707  0.569419  4.475511  2.029115  -5.691847  7.127959  19.597044  -14.277574  20.075241  8.899061  6.475517  4.628664  -6.204573  -1.764051  0.629779  2.490221  -4.752362  1.899776  6.758372  -4.752362  1.899776  6.758372  -5.641002  21.869491  7.35071  -133.907015  74.700548  -93.746003  -41.712925  -20.103829  86.097311  67.935853  -12.796843  -11.62824  23.331079  -6.966029  27.810744  89.195859  32.470971  33.10557  -27.398056  8.037193  -105.720634  77.530107  10.362367  47.615974  10.918918  -3.467633  -5.750214  8.154898  -2.704741  -4.25093  
0.0  101.685394  0.0  -1.040464  -27.361171  -101.670963  25.917269  -31.511702  -24.5918  -0.509568  26.413973  52.796602  0.550121  4.429387  2.159878  -5.101361  6.255515  19.364087  -14.845563  20.63743  9.399081  6.445479  4.706591  -6.031145  -1.852896  0.591625  2.45411  -4.999837  1.801999  6.65972  -4.999836  1.801998  6.659719  -5.105561  22.224654  7.942202  -136.374443  74.46339  -95.78193  -41.983772  -20.140109  86.756039  67.859128  -12.664379  -11.531184  23.124778  -6.758674  28.118219  89.650364  32.766015  33.089751  -27.606867  7.814468  -105.585318  78.035035  10.350165  47.796469  11.01399  -3.277696  -5.424588  8.229903  -2.557236  -4.009746  
0.0  101.685394  0.0  -1.00748  -26.820066  -101.561984  25.60888  -31.205764  -24.603258  -0.83706  26.159864  52.366108  0.546283  4.380555  2.321013  -5.097161  5.733554  18.95576  -15.290316  21.130205  9.767157  6.52791  4.635362  -5.912333  -1.934886  0.555023  2.403617  -5.228737  1.706387  6.522136  -5.228736  1.706387  6.522136  -4.837724  22.481115  8.388766  -139.177556  74.269648  -98.277447  -42.31007  -20.217459  87.492749  67.849202  -12.501799  -11.433002  23.109584  -6.566715  28.461617  89.952288  33.111848  32.965585  -27.87645  7.716287  -105.497775  78.501251  10.183511  48.218539  11.051356  -3.103337  -5.140648  8.261071  -2.421587  -3.799847  
0.0  101.685394  0.0  -0.804737  -27.120803  -101.942341  25.803733  -31.203188  -24.125367  -0.713016  25.775489  52.165254  0.449633  4.324916  2.444665  -4.794299  5.748144  19.104303  -15.456501  21.355637  9.816093  7.212431  4.763959  -5.8633  -1.893841  0.526881  2.415642  -5.119028  1.626497  6.558215  -5.119028  1.626497  6.558215  -4.509091  22.750156  8.757288  -142.257964  74.13496  -101.057258  -42.713532  -20.398548  88.288853  67.938573  -12.2756  -11.299912  22.177799  -6.553668  28.320255  89.634579  33.670257  32.427988  -26.527608  8.198578  -105.360747  78.695257  9.765164  48.69034  11.174409  -2.894513  -4.884997  8.356516  -2.261261  -3.611432  
0.0  101.685394  0.0  -0.652871  -26.622329  -101.810309  25.36231  -30.959435  -24.054492  -0.629993  25.566065  51.770459  0.39479  4.261765  2.567288  -5.690173  6.123857  18.900389  -15.537158  21.449419  9.521034  7.866692  4.69286  -5.7586  -1.947252  0.49411  2.324686  -5.270355  1.53516  6.31082  -5.270356  1.53516  6.31082  -4.263145  23.026924  9.259079  -145.267989  74.031983  -103.771028  -43.034566  -20.70883  89.107272  68.090747  -11.936363  -11.183396  22.239198  -6.435785  28.88888  89.783382  34.068148  32.27551  -27.183621  8.755091  -105.463194  78.689352  9.084098  49.037185  11.161561  -2.747493  -4.573544  8.349557  -2.145132  -3.380621  
0.0  101.685394  0.0  -0.395273  -26.318313  -101.740621  25.093888  -30.773559  -23.896681  -0.225397  25.228336  51.604638  0.188354  4.223821  2.608618  -5.545126  6.910307  19.252382  -14.968738  21.215501  9.290722  7.390877  4.080992  -5.656993  -1.998982  0.464664  2.208777  -5.41715  1.450299  5.995209  -5.41715  1.450299  5.99521  -3.803495  23.390289  9.862192  -148.596898  74.289979  -106.563018  -43.636415  -21.359068  89.739128  68.27174  -11.50243  -11.057943  22.451539  -6.320756  29.61122  88.099265  35.255257  31.011347  -26.304369  9.643322  -105.6549  78.63623  8.177307  49.121877  11.276289  -2.599792  -4.210435  8.43833  -2.028459  -3.110537  
0.0  101.685394  0.0  -0.221726  -25.825296  -101.384567  24.786563  -30.49028  -24.039882  -0.023701  25.048632  51.238128  0.049661  4.170606  2.657131  -6.589338  7.327735  19.039239  -14.728978  21.236683  8.687286  7.977404  3.966687  -5.505543  -2.049645  0.437501  2.09163  -5.560584  1.370958  5.676214  -5.560584  1.370958  5.676215  -3.508889  23.621461  10.208943  -151.496792  74.282558  -109.204732  -43.930005  -21.815538  90.633562  68.487493  -10.924392  -10.941437  22.633439  -6.257472  30.126836  88.06431  35.783038  30.807288  -27.086799  10.401426  -106.003807  78.704381  7.202511  49.04972  11.280951  -2.512007  -4.053577  8.443137  -1.95972  -2.994506  
